<svg xmlns="http://www.w3.org/2000/svg" version="1.1" xmlns:xlink="http://www.w3.org/1999/xlink" xmlns:svgjs="http://svgjs.dev/svgjs" width="100" height="50" viewBox="0 0 1000 750"><rect width="100" height="50" fill="#000000"></rect><g transform="matrix(0.834,0,0,0.834,82.49454545454546,138.56314292322622)"><svg viewBox="0 0 396 225" data-background-color="#010536" preserveAspectRatio="xMidYMid meet" height="568" width="1000" xmlns="http://www.w3.org/2000/svg" xmlns:xlink="http://www.w3.org/1999/xlink"><g id="tight-bounds" transform="matrix(1,0,0,1,0.2400000000000091,-0.1990812091015215)"><svg viewBox="0 0 395.52 225.39816241820304" height="225.39816241820304" width="395.52"><g><svg viewBox="0 0 433.77702351713555 247.2" height="225.39816241820304" width="395.52"><g><svg viewBox="0 0 232.02659846547314 247.2" height="247.2" width="232.02659846547314"><g id="textblocktransform"><svg viewBox="0 0 232.02659846547314 247.2" height="247.2" width="232.02659846547314" id="textblock"><g><svg viewBox="0 0 232.02659846547314 247.2" height="247.2" width="232.02659846547314"><g transform="matrix(1,0,0,1,0,0)"><svg width="232.02659846547314" viewBox="-3.75 -35.70000076293945 36.70000076293945 39.10000228881836" height="247.2" data-palette-color="#fbfbf8"><path d="M-0.45 1.9L-2.05 3.4Q-3.2 3.4-3.6 2.65L-3.6 2.65Q-3.75 2.4-3.75 2.25-3.75 2.1-3.65 2L-3.65 2Q0.9-1.35 7.15-8.5L7.15-8.5Q4.05-10.2 2.35-12.58 0.65-14.95 0.65-16.98 0.65-19 1.9-20.15 3.15-21.3 5.55-21.3L5.55-21.3Q10.1-21.3 13.3-16.05L13.3-16.05Q14.7-17.8 17.78-21.75 20.85-25.7 22.25-27.43 23.65-29.15 25.7-31.5L25.7-31.5Q29.5-35.7 31.45-35.7L31.45-35.7Q32.95-35.65 32.95-34.1L32.95-34.1Q32.95-32.45 31.83-29.58 30.7-26.7 30.03-25.03 29.35-23.35 28.03-20.58 26.7-17.8 25.95-16.18 25.2-14.55 23.65-11.38 22.1-8.2 21.5-6.95L21.5-6.95Q25.35-7.2 27.6-8.3L27.6-8.3Q28-8.5 28.1-8.75 28.2-9 28.38-9 28.55-9 28.73-8.8 28.9-8.6 28.9-8.4L28.9-8.4Q28.9-6.7 21.1-6.05L21.1-6.05Q19.15-2 18.4-0.2L18.4-0.2Q18.2 0.2 17.8 0.2L17.8 0.2Q16.75 0.2 16.75-1.8L16.75-1.8Q16.55-3.35 16.05-6.05L16.05-6.05Q12.1-6.35 8.65-7.8L8.65-7.8 8.65-7.75Q6.5-5.1 3.83-2.33 1.15 0.45-0.45 1.9L-0.45 1.9ZM19.65-6.9L19.65-6.9Q31.1-30.7 31.1-33.45L31.1-33.45Q31.1-34.3 30.5-34.3L30.5-34.3Q29.6-34.3 27.98-32.5 26.35-30.7 25.35-29.5 24.35-28.3 22.7-26.18 21.05-24.05 19.98-22.65 18.9-21.25 16.95-18.63 15-16 14.05-14.75L14.05-14.75Q15.6-11.85 16.85-7.1L16.85-7.1Q18.05-6.9 19.65-6.9ZM12.75-15.3L12.75-15.3Q9.8-20.4 5.75-20.4L5.75-20.4Q3.95-20.4 3.05-19.65 2.15-18.9 2.15-17.43 2.15-15.95 3.83-13.78 5.5-11.6 8.35-9.95L8.35-9.95Q9.85-11.7 12.75-15.3ZM13.45-13.95L13.45-13.95Q11.85-11.8 9.75-9.15L9.75-9.15Q12.7-7.75 15.75-7.25L15.75-7.25Q14.7-11.45 13.45-13.95ZM19.2-5.95L19.2-5.95 17.1-5.95 17.7-2.8Q18.3-4 19.2-5.95Z" opacity="1" transform="matrix(1,0,0,1,0,0)" fill="#ffffff" class="undefined-text-0" data-fill-palette-color="primary" id="text-0"></path></svg></g></svg></g></svg></g></svg></g><g transform="matrix(1,0,0,1,290.38458566547314,51.90378107416879)"><svg viewBox="0 0 143.3924378516624 143.3924378516624" height="143.3924378516624" width="143.3924378516624"><g data-palette-color="#ffff00"><rect width="39.193933012787724" height="143.3924378516624" fill="#ffffff" stroke="transparent" data-fill-palette-color="accent" x="0" fill-opacity="1"></rect><rect width="39.193933012787724" height="143.3924378516624" fill="#ffffff" stroke="transparent" data-fill-palette-color="accent" x="47.79747928388747" fill-opacity="0.75"></rect><rect width="39.193933012787724" height="143.3924378516624" fill="#ffffff" stroke="transparent" data-fill-palette-color="accent" x="95.59495856777494" fill-opacity="0.5"></rect></g></svg></g></svg></g><defs></defs></svg><rect width="395.52" height="225.39816241820304" fill="none" stroke="none" visibility="hidden"></rect></g></svg></g></svg>